<svg width="85" height="84" viewBox="0 0 85 84" fill="none" xmlns="http://www.w3.org/2000/svg">
<path d="M79.25 28.3501L70.5 33.1626L61.75 41.4751V70.0001H74C76.8997 70.0001 79.25 67.6498 79.25 64.7501V28.3501Z" fill="#4CAF50"/>
<path d="M5.75 28.3501L12.0745 31.3426L23.25 41.4751V70.0001H11C8.10025 70.0001 5.75 67.6498 5.75 64.7501V28.3501Z" fill="#1E88E5"/>
<path d="M61.75 19.6001L42.5 34.0376L23.25 19.6001L21.5 29.7501L23.25 41.4751L42.5 55.9126L61.75 41.4751L63.5 29.7501L61.75 19.6001Z" fill="#E53935"/>
<path d="M5.75 21.5215V28.35L23.25 41.475V19.6L17.783 15.5033C16.481 14.5268 14.899 14 13.2715 14C9.117 14 5.75 17.367 5.75 21.5215Z" fill="#C62828"/>
<path d="M79.25 21.5215V28.35L61.75 41.475V19.6L67.217 15.5033C68.519 14.5268 70.101 14 71.7285 14C75.883 14 79.25 17.367 79.25 21.5215Z" fill="#FBC02D"/>
</svg>
