<svg width="85" height="84" viewBox="0 0 85 84" fill="none" xmlns="http://www.w3.org/2000/svg">
<path d="M35.5 55.8158C35.5 57.8495 37.292 59.5 39.5 59.5H73.5C75.708 59.5 77.5 57.8495 77.5 55.8158V28.1842C77.5 26.1505 75.708 24.5 73.5 24.5H39.5C37.292 24.5 35.5 26.1505 35.5 28.1842V55.8158Z" fill="#03A9F4"/>
<path d="M77.5 32.0613V30.1961C77.5 29.3773 77.5 28 77.5 28L54.9695 41.2608L40.3598 32.354L39 35.9351L55.386 45.5L77.5 32.0613Z" fill="#B3E5FC"/>
<path d="M49.5 77L7.5 69.2222V14.7778L49.5 7V77Z" fill="#0277BD"/>
<path d="M36.1672 31.7868C34.2855 29.2629 31.8041 28 28.7502 28C25.5078 28 22.9098 29.3243 20.9459 31.9649C18.9854 34.6115 18 38.0776 18 42.3494C18 46.3975 18.9665 49.7012 20.8962 52.2192C22.8259 54.7391 25.3382 56 28.3989 56C31.5521 56 34.1073 54.7094 36.0661 52.0905C38.0249 49.4914 39 46.0669 39 41.7991C39 37.6659 38.0557 34.3285 36.1672 31.7868ZM32.4536 48.4621C31.4802 49.9843 30.1589 50.7425 28.4897 50.7425C26.8805 50.7425 25.5781 49.9625 24.5739 48.3928C23.5782 46.8389 23.0829 44.7089 23.0829 42.0366C23.0829 39.392 23.5782 37.2581 24.5739 35.6527C25.5781 34.0493 26.9182 33.2556 28.6097 33.2556C30.2583 33.2556 31.5539 34.0335 32.4947 35.5874C33.4458 37.1611 33.9222 39.3386 33.9222 42.1396C33.9239 44.8416 33.4287 46.9438 32.4536 48.4621Z" fill="#F7F7F7"/>
</svg>
