<svg width="24" height="24" viewBox="0 0 24 24" fill="none" xmlns="http://www.w3.org/2000/svg">
<path d="M22.5 8.1001L20 9.4751L17.5 11.8501V20.0001H21C21.8285 20.0001 22.5 19.3286 22.5 18.5001V8.1001Z" fill="#4CAF50"/>
<path d="M1.5 8.1001L3.307 8.9551L6.5 11.8501V20.0001H3C2.1715 20.0001 1.5 19.3286 1.5 18.5001V8.1001Z" fill="#1E88E5"/>
<path d="M17.5 5.6001L12 9.7251L6.5 5.6001L6 8.5001L6.5 11.8501L12 15.9751L17.5 11.8501L18 8.5001L17.5 5.6001Z" fill="#E53935"/>
<path d="M1.5 6.149V8.1L6.5 11.85V5.6L4.938 4.4295C4.566 4.1505 4.114 4 3.649 4C2.462 4 1.5 4.962 1.5 6.149Z" fill="#C62828"/>
<path d="M22.5 6.149V8.1L17.5 11.85V5.6L19.062 4.4295C19.434 4.1505 19.886 4 20.351 4C21.538 4 22.5 4.962 22.5 6.149Z" fill="#FBC02D"/>
</svg>
