<svg width="40" height="40" viewBox="0 0 40 40" fill="none" xmlns="http://www.w3.org/2000/svg">
<path fill-rule="evenodd" clip-rule="evenodd" d="M19.6916 1.35595C16.9835 1.27302 14.2963 1.85167 11.8655 3.04128L11.8598 3.04405C8.69753 4.54591 6.0154 6.88906 4.11096 9.81369C2.20767 12.7366 1.15534 16.1261 1.07054 19.6068V20.779C1.25144 25.6703 3.3719 30.2918 6.96905 33.6344C10.5685 36.9792 15.3538 38.7711 20.2786 38.6184C25.2034 38.4657 29.8669 36.3809 33.2497 32.8197C36.6325 29.2584 38.4595 24.5106 38.3308 19.6143L38.3305 19.6004C38.3305 13.9835 35.6765 9.5076 32.0063 6.38474C28.3269 3.25413 23.653 1.50848 19.6916 1.35595ZM11.3955 2.08511C13.9833 0.819236 16.8439 0.203678 19.7267 0.292317L19.7308 0.292443C23.9458 0.454164 28.8487 2.29734 32.7024 5.57624C36.5643 8.86217 39.399 13.6151 39.4012 19.5935C39.5353 24.7686 37.6035 29.7863 34.0281 33.5503C30.451 37.3161 25.5196 39.5207 20.312 39.6821C15.1043 39.8436 10.0442 37.9487 6.238 34.4118C2.43179 30.875 0.189092 25.984 0.000351319 20.808L0 20.7984V19.5877C0.0884082 15.9082 1.20039 12.325 3.21228 9.2354C5.22361 6.14662 8.05602 3.67176 11.3955 2.08511Z" fill="#AB47BC"/>
<path fill-rule="evenodd" clip-rule="evenodd" d="M27.4587 10.3382C25.8985 6.76322 23.5672 3.5725 20.63 0.991727L20.8762 0.71474C23.8544 3.33147 26.2182 6.56668 27.8 10.1916C29.8844 15.0173 30.4481 20.3585 29.4163 25.5091C28.3845 30.6597 25.806 35.3781 22.0211 39.042L21.7616 38.7771C25.4927 35.1655 28.0345 30.5141 29.0516 25.4369C30.0687 20.3597 29.5133 15.0952 27.4587 10.3382Z" fill="#AB47BC"/>
<path fill-rule="evenodd" clip-rule="evenodd" d="M7.79519 12.2396C8.74197 8.09747 10.9162 4.3326 14.0371 1.43122L14.2911 1.70122C11.2253 4.55135 9.08926 8.2495 8.15856 12.3183C7.67492 14.8529 7.6333 17.4514 8.03574 20.0001L8.03652 20.005C8.41513 22.9116 9.23869 25.7436 10.4786 28.4027C11.7319 31.1132 12.8937 33.6148 15.5531 35.7902C17.2488 37.1378 19.2002 38.1317 21.291 38.7124L21.1909 39.0685C19.0516 38.4742 17.0549 37.4572 15.32 36.0782L15.318 36.0766C12.5845 33.8411 11.3933 31.2659 10.1412 28.558C8.88569 25.8655 8.0516 22.998 7.66799 20.0549C7.25916 17.4641 7.30181 14.8226 7.79383 12.2461L7.79519 12.2396Z" fill="#AB47BC"/>
<path fill-rule="evenodd" clip-rule="evenodd" d="M14.6152 21.8148C12.2421 15.6479 11.2228 9.04801 11.6259 2.45752L11.997 2.47995C11.5972 9.01783 12.6083 15.5651 14.9625 21.6827C17.3167 27.8003 20.9593 33.3468 25.6465 37.9502L25.3851 38.2132C20.6602 33.5727 16.9883 27.9816 14.6152 21.8148Z" fill="#AB47BC"/>
<path fill-rule="evenodd" clip-rule="evenodd" d="M26.4743 7.81024C21.0751 4.78416 14.807 3.65654 8.6833 4.60972L8.62577 4.2445C14.8326 3.27838 21.1858 4.42148 26.6583 7.48897L26.6609 7.49044C32.6052 10.9497 36.9968 16.5343 38.9388 23.1037L38.5821 23.208C36.6669 16.7294 32.3362 11.222 26.4743 7.81024Z" fill="#AB47BC"/>
<path fill-rule="evenodd" clip-rule="evenodd" d="M4.47576 14.7808C3.94989 19.2398 4.24354 24.6574 7.18583 29.3321C8.82691 31.8783 10.983 34.0572 13.5171 35.7302C16.285 37.4155 19.433 38.3861 22.6745 38.5535L22.6552 38.9227C19.3506 38.752 16.1415 37.7623 13.3199 36.0436L13.3141 36.0401C10.7355 34.3383 8.54173 32.1214 6.87212 29.5306L6.87106 29.5289C3.86529 24.7539 3.57559 19.2389 4.10642 14.7378C4.63751 10.2346 5.9925 6.7237 6.30071 5.93859L6.64714 6.07298C6.34328 6.847 5.00141 10.3237 4.47576 14.7808Z" fill="#AB47BC"/>
<path fill-rule="evenodd" clip-rule="evenodd" d="M9.38395 21.936C6.52063 18.6207 4.2663 14.8306 2.72386 10.7388L3.07209 10.6091C4.59929 14.6605 6.8314 18.4131 9.6665 21.6957L9.6673 21.6966C13.6257 26.3418 18.6446 29.9782 24.3048 32.3023C26.7964 33.3122 29.3862 34.0637 32.0331 34.5446L31.9662 34.9083C29.294 34.4227 26.6795 33.6641 24.164 32.6445C18.449 30.2979 13.3807 26.626 9.38395 21.936Z" fill="#AB47BC"/>
<path fill-rule="evenodd" clip-rule="evenodd" d="M21.1196 12.7164C14.814 11.1928 8.23287 11.1928 1.92725 12.7164L1.83943 12.3572C8.20249 10.8197 14.8436 10.8197 21.2066 12.357C27.86 13.9023 33.9874 17.1604 38.9736 21.8042L38.7193 22.074C33.7806 17.4744 27.7114 14.2472 21.1212 12.7167L21.1196 12.7164Z" fill="#AB47BC"/>
<path fill-rule="evenodd" clip-rule="evenodd" d="M32.5869 6.35446C31.2385 5.89372 20.1557 2.10678 10.8033 8.25215L10.8012 8.25354C9.66051 8.98114 3.74966 12.8825 2.08374 20.2031C1.57361 22.4101 1.50599 24.6961 1.88493 26.9291L1.51824 26.9905C1.13119 24.7098 1.20009 22.3755 1.7211 20.1212C3.42111 12.6515 9.44212 8.68127 10.5993 7.94307C20.1076 1.69611 31.3443 5.53861 32.704 6.00358C32.7238 6.01034 32.7415 6.01639 32.757 6.02169L32.6367 6.37145C32.6219 6.36643 32.6053 6.36076 32.5869 6.35446Z" fill="#AB47BC"/>
<path fill-rule="evenodd" clip-rule="evenodd" d="M24.1321 3.8567C21.0018 3.11068 17.7499 3.01882 14.582 3.58696C11.4137 4.15519 8.39864 5.37124 5.72765 7.15809L5.52003 6.8514C8.23373 5.03597 11.297 3.80048 14.516 3.22316C17.735 2.64585 21.0395 2.7393 24.2203 3.49758L24.2233 3.49829C27.2162 4.26364 30.0172 5.63655 32.4502 7.53058C34.8833 9.42461 36.8957 11.7988 38.3607 14.5036L38.0333 14.6789C36.5926 12.0189 34.6136 9.6842 32.221 7.82163C29.8287 5.95936 27.0747 4.60942 24.1321 3.8567Z" fill="#AB47BC"/>
<path fill-rule="evenodd" clip-rule="evenodd" d="M29.3481 26.2983C33.1284 20.5707 34.5306 13.6104 33.2608 6.87727L33.6263 6.80915C34.9138 13.6362 33.4921 20.6936 29.659 26.5011C25.8259 32.3087 19.8794 36.4151 13.0669 37.959L12.9843 37.5986C19.7031 36.0759 25.5677 32.026 29.3481 26.2983Z" fill="#AB47BC"/>
<path fill-rule="evenodd" clip-rule="evenodd" d="M34.3884 7.63243C34.7644 8.48543 39.0197 18.4631 32.9504 27.998C26.469 38.209 14.3 38.209 13.6669 38.209L13.6661 37.8393C14.286 37.8393 26.2667 37.835 32.6359 27.8007C38.5972 18.4359 34.4177 8.62003 34.0478 7.7808L34.3884 7.63243Z" fill="#AB47BC"/>
<path fill-rule="evenodd" clip-rule="evenodd" d="M23.0956 18.3685C19.8838 12.5392 15.5296 7.40863 10.2899 3.28008L10.5209 2.99038C15.7995 7.14963 20.1861 12.3183 23.4218 18.191C26.5586 23.8908 28.5354 30.149 29.2391 36.6083L28.8694 36.6481C28.171 30.2371 26.209 24.0257 23.0956 18.3685Z" fill="#AB47BC"/>
<path fill-rule="evenodd" clip-rule="evenodd" d="M38.8051 23.6418C38.4229 24.7047 34.9871 34.2618 24.1351 36.9214C18.3912 38.3273 13.4376 37.0067 9.88071 35.2932C6.32567 33.5807 4.15681 31.4717 3.96977 31.2808L4.23621 31.0229C4.40302 31.1932 6.5377 33.272 10.0429 34.9606C13.5462 36.6482 18.4095 37.9421 24.0462 36.5624C34.7006 33.9512 38.0775 24.5662 38.4566 23.5127C38.4672 23.4832 38.4755 23.4601 38.4815 23.444L38.8302 23.5726C38.8242 23.5887 38.8158 23.6119 38.8051 23.6418Z" fill="#AB47BC"/>
<path fill-rule="evenodd" clip-rule="evenodd" d="M7.72232 31.4391C5.04529 29.6151 2.76033 27.2795 1.00079 24.5685L1.31327 24.3681C3.04604 27.0378 5.29624 29.3379 7.93256 31.1342C10.5683 32.9301 13.5374 34.1864 16.6666 34.83C19.9261 35.4238 23.2731 35.3511 26.5035 34.6164C29.7345 33.8816 32.7809 32.4998 35.4568 30.5555L35.6762 30.854C32.9595 32.8279 29.8667 34.2307 26.5864 34.9768C23.3061 35.7229 19.9073 35.7965 16.5974 35.1932L16.5933 35.1925C13.415 34.5391 10.3994 33.2631 7.72232 31.4391Z" fill="#AB47BC"/>
<path fill-rule="evenodd" clip-rule="evenodd" d="M36.1612 10.4871C30.2238 7.48989 23.4181 6.65364 16.9252 8.12362C10.4324 9.59359 4.66204 13.2769 0.615809 18.5345L0.32046 18.3098C4.41949 12.9837 10.2651 9.25233 16.8427 7.76318C23.4202 6.27402 30.3147 7.12118 36.3296 10.1575L36.1612 10.4871Z" fill="#AB47BC"/>
</svg>
