<svg width="24" height="24" viewBox="0 0 24 24" fill="none" xmlns="http://www.w3.org/2000/svg">
<path d="M10 15.9474C10 16.5284 10.512 17 11.1429 17H20.8571C21.488 17 22 16.5284 22 15.9474V8.05263C22 7.47158 21.488 7 20.8571 7H11.1429C10.512 7 10 7.47158 10 8.05263V15.9474Z" fill="#03A9F4"/>
<path d="M22 9.16036V8.62746C22 8.39353 22 8 22 8L15.5627 11.7888L11.3885 9.24399L11 10.2672L15.6817 13L22 9.16036Z" fill="#B3E5FC"/>
<path d="M14 22L2 19.7778V4.22222L14 2V22Z" fill="#0277BD"/>
<path d="M10.1906 9.08194C9.65301 8.36083 8.94402 8 8.07149 8C7.1451 8 6.40281 8.37837 5.84168 9.13284C5.28154 9.88901 5 10.8793 5 12.0998C5 13.2564 5.27615 14.2004 5.82749 14.9198C6.37882 15.6397 7.09662 16 7.97111 16C8.87204 16 9.60209 15.6312 10.1617 14.883C10.7214 14.1404 11 13.162 11 11.9426C11 10.7617 10.7302 9.80813 10.1906 9.08194ZM9.12959 13.8463C8.85148 14.2812 8.47397 14.4978 7.99706 14.4978C7.53729 14.4978 7.16517 14.275 6.87824 13.8265C6.59377 13.3825 6.45226 12.774 6.45226 12.0105C6.45226 11.2549 6.59377 10.6452 6.87824 10.1865C7.16517 9.72838 7.54807 9.50159 8.03134 9.50159C8.50237 9.50159 8.87253 9.72386 9.14134 10.1678C9.41309 10.6175 9.54921 11.2396 9.54921 12.0399C9.5497 12.8119 9.40819 13.4125 9.12959 13.8463Z" fill="white"/>
</svg>
