<svg width="24" height="24" viewBox="0 0 24 24" fill="none" xmlns="http://www.w3.org/2000/svg">
<g opacity="0.9" clip-path="url(#clip0_7336_5816)">
<path d="M4.80078 19.5001H6.17678V18.1501H6.80078C7.79278 18.1501 8.62478 17.4751 8.62478 16.5601C8.62478 15.6451 7.82478 14.9851 6.80078 14.9851H4.80078V19.4851V19.5001ZM6.17678 17.1151V16.0351H6.65678C6.97678 16.0351 7.24878 16.2301 7.24878 16.5601C7.24878 16.8901 6.99278 17.1001 6.65678 17.1001H6.17678V17.1151ZM9.90478 19.5001H11.8088C13.4088 19.5001 14.4008 18.6151 14.4008 17.2201C14.4008 15.9151 13.4088 15.0001 11.8088 15.0001H9.90478V19.5001ZM11.2808 18.4351V16.0501H11.7448C12.2728 16.0501 12.9928 16.2901 12.9928 17.2201C12.9928 18.1951 12.2728 18.4351 11.7448 18.4351H11.2808ZM16.0008 19.5001H17.3768V17.8951H19.0728V16.8601H17.3768V16.0501H19.3128V15.0151H16.0168V19.5151L16.0008 19.5001Z" fill="#757575"/>
<path d="M19.9996 24H3.99961C2.67161 24 1.59961 22.995 1.59961 21.75V2.25C1.59961 1.005 2.67161 0 3.99961 0H15.3436C15.9836 0 16.5916 0.24 17.0396 0.66L21.6956 5.025C22.1436 5.445 22.3996 6.015 22.3996 6.615V21.75C22.3996 22.995 21.3276 24 19.9996 24ZM3.99961 1.5C3.55161 1.5 3.19961 1.83 3.19961 2.25V21.75C3.19961 22.17 3.55161 22.5 3.99961 22.5H19.9996C20.4476 22.5 20.7996 22.17 20.7996 21.75V6.615C20.8009 6.51664 20.7802 6.41911 20.7389 6.32869C20.6975 6.23828 20.6365 6.15697 20.5596 6.09L15.9036 1.725C15.7559 1.58369 15.5546 1.50282 15.3436 1.5H3.99961Z" fill="#757575" stroke="#757575" stroke-width="0.4"/>
<path d="M21.4084 7.49993H16.7524C15.4564 7.49993 14.4004 6.50993 14.4004 5.29493V0.929932C14.4004 0.509932 14.7524 0.179932 15.2004 0.179932C15.6484 0.179932 16.0004 0.509932 16.0004 0.929932V5.29493C16.0004 5.68493 16.3364 5.99993 16.7524 5.99993H21.4084C21.8564 5.99993 22.2084 6.32993 22.2084 6.74993C22.2084 7.16993 21.8564 7.49993 21.4084 7.49993Z" fill="#757575" stroke="#757575" stroke-width="0.4"/>
</g>
<defs>
<clipPath id="clip0_7336_5816">
<rect width="24" height="24" fill="white"/>
</clipPath>
</defs>
</svg>
