<svg width="15" height="15" viewBox="0 0 15 15" fill="none" xmlns="http://www.w3.org/2000/svg">
<path d="M6.5625 10.7812H10.3125V11.7188H6.5625V10.7812ZM4.6875 10.7812H5.625V11.7188H4.6875V10.7812ZM6.5625 8.4375H10.3125V9.375H6.5625V8.4375ZM4.6875 8.4375H5.625V9.375H4.6875V8.4375ZM6.5625 6.09375H10.3125V7.03125H6.5625V6.09375ZM4.6875 6.09375H5.625V7.03125H4.6875V6.09375Z" fill="#757575"/>
<path d="M11.7188 2.34375H10.3125V1.875C10.3125 1.62636 10.2137 1.3879 10.0379 1.21209C9.8621 1.03627 9.62364 0.9375 9.375 0.9375H5.625C5.37636 0.9375 5.1379 1.03627 4.96209 1.21209C4.78627 1.3879 4.6875 1.62636 4.6875 1.875V2.34375H3.28125C3.03261 2.34375 2.79415 2.44252 2.61834 2.61834C2.44252 2.79415 2.34375 3.03261 2.34375 3.28125V13.125C2.34375 13.3736 2.44252 13.6121 2.61834 13.7879C2.79415 13.9637 3.03261 14.0625 3.28125 14.0625H11.7188C11.9674 14.0625 12.2058 13.9637 12.3817 13.7879C12.5575 13.6121 12.6562 13.3736 12.6562 13.125V3.28125C12.6562 3.03261 12.5575 2.79415 12.3817 2.61834C12.2058 2.44252 11.9674 2.34375 11.7188 2.34375ZM5.625 1.875H9.375V3.75H5.625V1.875ZM11.7188 13.125H3.28125V3.28125H4.6875V4.6875H10.3125V3.28125H11.7188V13.125Z" fill="#757575"/>
</svg>
